<svg width="20" height="22" viewBox="0 0 20 22" fill="none" xmlns="http://www.w3.org/2000/svg">
<path d="M6.84756 1.29491C4.39047 2.16164 2.26543 4.02843 1.07009 6.36192C0.671649 7.16197 0.33961 8.0287 0.206795 8.96209C-0.258058 11.1622 0.0739799 13.5624 1.07009 15.5625C1.73417 16.896 2.66388 18.0294 3.85921 18.9628C4.92174 19.8295 6.18348 20.4962 7.57804 20.8296C9.30464 21.2963 11.0976 21.2963 12.7578 20.8962C14.2852 20.5629 15.7462 19.8295 16.9415 18.6961C18.2033 17.5627 19.0666 16.0959 19.5314 14.4291C20.0627 12.6957 20.1291 10.8289 19.797 9.02876C16.6095 9.02876 13.4219 9.02876 10.2343 9.02876C10.2343 10.3622 10.2343 11.6956 10.2343 13.029C12.0938 13.029 13.9532 13.029 15.7462 13.029C15.547 14.2958 14.7501 15.4959 13.6875 16.1626C13.0235 16.6293 12.2266 16.896 11.4297 17.0293C10.6328 17.1626 9.76949 17.1626 8.9726 17.0293C8.17571 16.896 7.37882 16.4959 6.71474 16.0292C5.65222 15.2959 4.78892 14.1624 4.39048 12.8957C3.92562 11.6289 3.92562 10.2288 4.39048 8.89542C4.72251 8.0287 5.18737 7.16197 5.85144 6.49526C6.64833 5.62854 7.71086 5.0285 8.90619 4.82848C9.90231 4.62847 10.8984 4.62847 11.8945 4.96182C12.6914 5.22851 13.4883 5.69521 14.086 6.22858C14.6837 5.62854 15.3477 4.96182 15.9454 4.36178C16.2774 4.02843 16.6095 3.69507 16.9415 3.36172C16.0118 2.49499 14.8829 1.76161 13.6875 1.29491C11.4961 0.561527 9.03901 0.561527 6.84756 1.29491Z" fill="white"/>
<path d="M6.84729 1.2949C9.03874 0.561522 11.4958 0.561522 13.6873 1.36158C14.8826 1.82827 16.0115 2.49499 16.9413 3.42838C16.6092 3.76174 16.2772 4.09509 15.9451 4.42845C15.3475 5.02849 14.6834 5.6952 14.0857 6.29524C13.4881 5.6952 12.6912 5.2285 11.8943 5.02849C10.9646 4.76181 9.90204 4.69513 8.90593 4.89515C7.777 5.16183 6.71447 5.76187 5.85117 6.56193C5.1871 7.22864 4.65584 8.09536 4.39021 8.96209C3.26128 8.09536 2.19875 7.22864 1.06982 6.36191C2.26516 4.02842 4.39021 2.16163 6.84729 1.2949Z" fill="#EA4335"/>
<path d="M0.206795 8.96211C0.406018 8.09539 0.671649 7.22866 1.07009 6.36194C2.19902 7.22866 3.26155 8.09539 4.39048 8.96211C3.92562 10.2289 3.92562 11.629 4.39048 12.9624C3.26155 13.8291 2.19902 14.6958 1.07009 15.5626C0.0739799 13.4958 -0.258058 11.1623 0.206795 8.96211Z" fill="#FBBC05"/>
<path d="M10.168 9.02875C13.3555 9.02875 16.5431 9.02875 19.7307 9.02875C20.0627 10.8289 19.9963 12.6957 19.465 14.4291C19.0002 16.0292 18.1369 17.496 16.8751 18.6961C15.8126 17.8293 14.7501 17.0293 13.6212 16.1626C14.6837 15.4292 15.4142 14.2958 15.6798 13.029C13.8204 13.029 11.961 13.029 10.168 13.029C10.168 11.6956 10.168 10.3622 10.168 9.02875Z" fill="#4285F4"/>
<path d="M1.06982 15.5625C2.19875 14.6958 3.26128 13.8291 4.39021 12.9623C4.78865 14.2291 5.65195 15.3625 6.71447 16.0959C7.37855 16.5626 8.17544 16.8959 8.97233 17.096C9.76923 17.2293 10.5661 17.2293 11.4294 17.096C12.2263 16.9626 13.0232 16.6293 13.6873 16.2292C14.7498 17.096 15.8123 17.896 16.9413 18.7627C15.7459 19.8295 14.3514 20.5629 12.7576 20.9629C11.031 21.3629 9.23796 21.3629 7.57777 20.8962C6.24962 20.5629 4.98788 19.8961 3.85895 19.0294C2.73002 18.0293 1.7339 16.8293 1.06982 15.5625Z" fill="#34A853"/>
</svg>
