<svg width="161" height="59" viewBox="0 0 161 59" fill="none" xmlns="http://www.w3.org/2000/svg">
<path d="M26.132 55L29.396 46.06H30.428L33.692 55H32.684L31.916 52.816H27.92L27.14 55H26.132ZM28.232 51.916H31.58L29.768 46.78H30.056L28.232 51.916ZM34.8841 55V46.06H35.8441V55H34.8841ZM43.0055 55.144C42.4375 55.144 41.9215 55.036 41.4575 54.82C40.9935 54.604 40.6015 54.316 40.2815 53.956C39.9615 53.588 39.7335 53.184 39.5975 52.744L40.4615 52.42C40.6695 53.028 40.9935 53.492 41.4335 53.812C41.8735 54.124 42.3975 54.28 43.0055 54.28C43.3895 54.28 43.7255 54.22 44.0135 54.1C44.3095 53.972 44.5375 53.796 44.6975 53.572C44.8575 53.348 44.9375 53.088 44.9375 52.792C44.9375 52.352 44.8175 52.012 44.5775 51.772C44.3375 51.532 43.9935 51.348 43.5455 51.22L41.9375 50.74C41.3055 50.556 40.8175 50.248 40.4735 49.816C40.1375 49.384 39.9695 48.892 39.9695 48.34C39.9695 47.868 40.0855 47.452 40.3175 47.092C40.5495 46.724 40.8655 46.436 41.2655 46.228C41.6735 46.02 42.1335 45.916 42.6455 45.916C43.1815 45.916 43.6615 46.016 44.0855 46.216C44.5175 46.408 44.8815 46.664 45.1775 46.984C45.4735 47.304 45.6855 47.66 45.8135 48.052L44.9735 48.388C44.7815 47.86 44.4815 47.46 44.0735 47.188C43.6735 46.916 43.2015 46.78 42.6575 46.78C42.3135 46.78 42.0095 46.84 41.7455 46.96C41.4895 47.08 41.2895 47.252 41.1455 47.476C41.0015 47.7 40.9295 47.964 40.9295 48.268C40.9295 48.636 41.0455 48.968 41.2775 49.264C41.5095 49.552 41.8655 49.768 42.3455 49.912L43.7615 50.332C44.4655 50.54 44.9975 50.84 45.3575 51.232C45.7175 51.624 45.8975 52.116 45.8975 52.708C45.8975 53.188 45.7735 53.612 45.5255 53.98C45.2855 54.34 44.9455 54.624 44.5055 54.832C44.0735 55.04 43.5735 55.144 43.0055 55.144ZM50.0793 55.072C49.5033 55.072 49.0593 54.904 48.7473 54.568C48.4353 54.232 48.2793 53.752 48.2793 53.128V49.468H47.0913V48.568H47.3913C47.6633 48.568 47.8793 48.48 48.0393 48.304C48.1993 48.12 48.2793 47.892 48.2793 47.62V47.08H49.1793V48.568H50.5953V49.468H49.1793V53.128C49.1793 53.344 49.2113 53.536 49.2753 53.704C49.3393 53.864 49.4473 53.992 49.5993 54.088C49.7593 54.184 49.9713 54.232 50.2353 54.232C50.2993 54.232 50.3753 54.228 50.4633 54.22C50.5513 54.212 50.6273 54.204 50.6913 54.196V55C50.5953 55.024 50.4873 55.04 50.3673 55.048C50.2473 55.064 50.1513 55.072 50.0793 55.072ZM52.4037 57.64C52.2757 57.64 52.1437 57.628 52.0077 57.604C51.8797 57.588 51.7517 57.556 51.6237 57.508V56.668C51.7037 56.676 51.8037 56.688 51.9237 56.704C52.0517 56.728 52.1797 56.74 52.3077 56.74C52.6997 56.74 52.9997 56.656 53.2077 56.488C53.4157 56.328 53.6197 56.016 53.8197 55.552L54.2277 54.592L54.2037 55.384L51.4797 48.568H52.4517L54.6837 54.196H54.4317L56.6517 48.568H57.6477L54.7077 55.816C54.5797 56.128 54.4157 56.424 54.2157 56.704C54.0237 56.984 53.7797 57.208 53.4837 57.376C53.1877 57.552 52.8277 57.64 52.4037 57.64ZM58.7053 55V45.916H59.6053V55H58.7053ZM61.4474 55V48.568H62.3474V55H61.4474ZM61.4474 47.38V46.06H62.3474V47.38H61.4474ZM64.1896 55V48.568H65.0896V49.816L64.8856 49.768C65.0456 49.352 65.3056 49.024 65.6656 48.784C66.0336 48.544 66.4576 48.424 66.9376 48.424C67.3936 48.424 67.8016 48.528 68.1616 48.736C68.5296 48.944 68.8176 49.232 69.0256 49.6C69.2416 49.96 69.3496 50.368 69.3496 50.824V55H68.4496V51.172C68.4496 50.78 68.3776 50.448 68.2336 50.176C68.0976 49.904 67.9016 49.696 67.6456 49.552C67.3976 49.4 67.1096 49.324 66.7816 49.324C66.4536 49.324 66.1616 49.4 65.9056 49.552C65.6496 49.696 65.4496 49.908 65.3056 50.188C65.1616 50.46 65.0896 50.788 65.0896 51.172V55H64.1896ZM74.1165 57.64C73.6765 57.64 73.2685 57.572 72.8925 57.436C72.5245 57.3 72.2045 57.112 71.9325 56.872C71.6685 56.64 71.4645 56.368 71.3205 56.056L72.1485 55.612C72.2765 55.916 72.5045 56.18 72.8325 56.404C73.1605 56.628 73.5805 56.74 74.0925 56.74C74.4845 56.74 74.8445 56.664 75.1725 56.512C75.5005 56.36 75.7645 56.136 75.9645 55.84C76.1645 55.544 76.2645 55.18 76.2645 54.748V53.32L76.4085 53.452C76.1845 53.916 75.8525 54.276 75.4125 54.532C74.9725 54.78 74.4925 54.904 73.9725 54.904C73.3725 54.904 72.8325 54.76 72.3525 54.472C71.8725 54.184 71.4925 53.796 71.2125 53.308C70.9405 52.812 70.8045 52.264 70.8045 51.664C70.8045 51.056 70.9405 50.508 71.2125 50.02C71.4925 49.532 71.8685 49.144 72.3405 48.856C72.8205 48.568 73.3645 48.424 73.9725 48.424C74.4925 48.424 74.9645 48.544 75.3885 48.784C75.8205 49.024 76.1605 49.348 76.4085 49.756L76.2645 50.008V48.568H77.1645V54.748C77.1645 55.3 77.0325 55.792 76.7685 56.224C76.5125 56.664 76.1525 57.008 75.6885 57.256C75.2325 57.512 74.7085 57.64 74.1165 57.64ZM74.0205 54.004C74.4365 54.004 74.8125 53.9 75.1485 53.692C75.4845 53.476 75.7525 53.192 75.9525 52.84C76.1605 52.48 76.2645 52.088 76.2645 51.664C76.2645 51.24 76.1605 50.852 75.9525 50.5C75.7525 50.14 75.4845 49.856 75.1485 49.648C74.8125 49.432 74.4365 49.324 74.0205 49.324C73.5965 49.324 73.2125 49.432 72.8685 49.648C72.5245 49.856 72.2525 50.136 72.0525 50.488C71.8605 50.84 71.7645 51.232 71.7645 51.664C71.7645 52.088 71.8605 52.48 72.0525 52.84C72.2525 53.192 72.5205 53.476 72.8565 53.692C73.2005 53.9 73.5885 54.004 74.0205 54.004ZM80.2609 55L83.5249 46.06H84.5569L87.8209 55H86.8129L86.0449 52.816H82.0489L81.2689 55H80.2609ZM82.3609 51.916H85.7089L83.8969 46.78H84.1849L82.3609 51.916ZM91.113 55.144C90.497 55.144 89.957 54.988 89.493 54.676C89.029 54.364 88.693 53.94 88.485 53.404L89.241 53.044C89.425 53.436 89.681 53.748 90.009 53.98C90.345 54.212 90.713 54.328 91.113 54.328C91.497 54.328 91.821 54.236 92.085 54.052C92.349 53.86 92.481 53.612 92.481 53.308C92.481 53.084 92.417 52.908 92.289 52.78C92.161 52.644 92.013 52.54 91.845 52.468C91.677 52.396 91.529 52.344 91.401 52.312L90.477 52.048C89.885 51.88 89.457 51.644 89.193 51.34C88.929 51.036 88.797 50.684 88.797 50.284C88.797 49.908 88.893 49.58 89.085 49.3C89.277 49.02 89.537 48.804 89.865 48.652C90.193 48.5 90.557 48.424 90.957 48.424C91.501 48.424 91.993 48.568 92.433 48.856C92.881 49.136 93.197 49.528 93.381 50.032L92.613 50.392C92.453 50.032 92.221 49.752 91.917 49.552C91.621 49.344 91.289 49.24 90.921 49.24C90.561 49.24 90.273 49.332 90.057 49.516C89.841 49.7 89.733 49.932 89.733 50.212C89.733 50.428 89.789 50.6 89.901 50.728C90.013 50.856 90.141 50.952 90.285 51.016C90.437 51.08 90.569 51.128 90.681 51.16L91.749 51.472C92.269 51.624 92.673 51.86 92.961 52.18C93.257 52.5 93.405 52.876 93.405 53.308C93.405 53.66 93.305 53.976 93.105 54.256C92.913 54.536 92.645 54.756 92.301 54.916C91.957 55.068 91.561 55.144 91.113 55.144ZM97.2185 55.144C96.6025 55.144 96.0625 54.988 95.5985 54.676C95.1345 54.364 94.7985 53.94 94.5905 53.404L95.3465 53.044C95.5304 53.436 95.7865 53.748 96.1145 53.98C96.4505 54.212 96.8185 54.328 97.2185 54.328C97.6025 54.328 97.9265 54.236 98.1905 54.052C98.4545 53.86 98.5865 53.612 98.5865 53.308C98.5865 53.084 98.5225 52.908 98.3945 52.78C98.2665 52.644 98.1185 52.54 97.9505 52.468C97.7825 52.396 97.6345 52.344 97.5065 52.312L96.5825 52.048C95.9905 51.88 95.5625 51.644 95.2985 51.34C95.0345 51.036 94.9025 50.684 94.9025 50.284C94.9025 49.908 94.9985 49.58 95.1905 49.3C95.3825 49.02 95.6425 48.804 95.9705 48.652C96.2985 48.5 96.6625 48.424 97.0625 48.424C97.6065 48.424 98.0984 48.568 98.5385 48.856C98.9865 49.136 99.3025 49.528 99.4865 50.032L98.7185 50.392C98.5585 50.032 98.3265 49.752 98.0225 49.552C97.7265 49.344 97.3945 49.24 97.0265 49.24C96.6665 49.24 96.3785 49.332 96.1625 49.516C95.9465 49.7 95.8385 49.932 95.8385 50.212C95.8385 50.428 95.8945 50.6 96.0065 50.728C96.1185 50.856 96.2465 50.952 96.3905 51.016C96.5425 51.08 96.6745 51.128 96.7865 51.16L97.8545 51.472C98.3745 51.624 98.7785 51.86 99.0665 52.18C99.3624 52.5 99.5105 52.876 99.5105 53.308C99.5105 53.66 99.4105 53.976 99.2105 54.256C99.0185 54.536 98.7505 54.756 98.4065 54.916C98.0625 55.068 97.6665 55.144 97.2185 55.144ZM101.092 55V48.568H101.992V55H101.092ZM101.092 47.38V46.06H101.992V47.38H101.092ZM106.066 55.144C105.45 55.144 104.91 54.988 104.446 54.676C103.982 54.364 103.646 53.94 103.438 53.404L104.194 53.044C104.378 53.436 104.634 53.748 104.962 53.98C105.298 54.212 105.666 54.328 106.066 54.328C106.45 54.328 106.774 54.236 107.038 54.052C107.302 53.86 107.434 53.612 107.434 53.308C107.434 53.084 107.37 52.908 107.242 52.78C107.114 52.644 106.966 52.54 106.798 52.468C106.63 52.396 106.482 52.344 106.354 52.312L105.43 52.048C104.838 51.88 104.41 51.644 104.146 51.34C103.882 51.036 103.75 50.684 103.75 50.284C103.75 49.908 103.846 49.58 104.038 49.3C104.23 49.02 104.49 48.804 104.818 48.652C105.146 48.5 105.51 48.424 105.91 48.424C106.454 48.424 106.946 48.568 107.386 48.856C107.834 49.136 108.15 49.528 108.334 50.032L107.566 50.392C107.406 50.032 107.174 49.752 106.87 49.552C106.574 49.344 106.242 49.24 105.874 49.24C105.514 49.24 105.226 49.332 105.01 49.516C104.794 49.7 104.686 49.932 104.686 50.212C104.686 50.428 104.742 50.6 104.854 50.728C104.966 50.856 105.094 50.952 105.238 51.016C105.39 51.08 105.522 51.128 105.634 51.16L106.702 51.472C107.222 51.624 107.626 51.86 107.914 52.18C108.21 52.5 108.358 52.876 108.358 53.308C108.358 53.66 108.258 53.976 108.058 54.256C107.866 54.536 107.598 54.756 107.254 54.916C106.91 55.068 106.514 55.144 106.066 55.144ZM112.4 55.072C111.824 55.072 111.38 54.904 111.068 54.568C110.756 54.232 110.6 53.752 110.6 53.128V49.468H109.412V48.568H109.712C109.984 48.568 110.2 48.48 110.36 48.304C110.52 48.12 110.6 47.892 110.6 47.62V47.08H111.5V48.568H112.916V49.468H111.5V53.128C111.5 53.344 111.532 53.536 111.596 53.704C111.66 53.864 111.768 53.992 111.92 54.088C112.08 54.184 112.292 54.232 112.556 54.232C112.62 54.232 112.696 54.228 112.784 54.22C112.872 54.212 112.948 54.204 113.012 54.196V55C112.916 55.024 112.808 55.04 112.688 55.048C112.568 55.064 112.472 55.072 112.4 55.072ZM116.335 55.144C115.927 55.144 115.563 55.068 115.243 54.916C114.923 54.756 114.671 54.54 114.487 54.268C114.303 53.996 114.211 53.684 114.211 53.332C114.211 52.996 114.283 52.692 114.427 52.42C114.571 52.14 114.795 51.904 115.099 51.712C115.403 51.52 115.791 51.384 116.263 51.304L118.783 50.884V51.7L116.479 52.084C116.015 52.164 115.679 52.312 115.471 52.528C115.271 52.744 115.171 53 115.171 53.296C115.171 53.584 115.283 53.828 115.507 54.028C115.739 54.228 116.035 54.328 116.395 54.328C116.835 54.328 117.219 54.236 117.547 54.052C117.875 53.86 118.131 53.604 118.315 53.284C118.499 52.964 118.591 52.608 118.591 52.216V50.584C118.591 50.2 118.451 49.888 118.171 49.648C117.891 49.408 117.527 49.288 117.079 49.288C116.687 49.288 116.343 49.388 116.047 49.588C115.751 49.78 115.531 50.032 115.387 50.344L114.571 49.9C114.691 49.628 114.879 49.38 115.135 49.156C115.399 48.932 115.699 48.756 116.035 48.628C116.371 48.492 116.719 48.424 117.079 48.424C117.551 48.424 117.967 48.516 118.327 48.7C118.695 48.884 118.979 49.14 119.179 49.468C119.387 49.788 119.491 50.16 119.491 50.584V55H118.591V53.716L118.723 53.848C118.611 54.088 118.435 54.308 118.195 54.508C117.963 54.7 117.687 54.856 117.367 54.976C117.055 55.088 116.711 55.144 116.335 55.144ZM121.342 55V48.568H122.242V49.816L122.038 49.768C122.198 49.352 122.458 49.024 122.818 48.784C123.186 48.544 123.61 48.424 124.09 48.424C124.546 48.424 124.954 48.528 125.314 48.736C125.682 48.944 125.97 49.232 126.178 49.6C126.394 49.96 126.502 50.368 126.502 50.824V55H125.602V51.172C125.602 50.78 125.53 50.448 125.386 50.176C125.25 49.904 125.054 49.696 124.798 49.552C124.55 49.4 124.262 49.324 123.934 49.324C123.606 49.324 123.314 49.4 123.058 49.552C122.802 49.696 122.602 49.908 122.458 50.188C122.314 50.46 122.242 50.788 122.242 51.172V55H121.342ZM130.681 55.072C130.105 55.072 129.661 54.904 129.349 54.568C129.037 54.232 128.881 53.752 128.881 53.128V49.468H127.693V48.568H127.993C128.265 48.568 128.481 48.48 128.641 48.304C128.801 48.12 128.881 47.892 128.881 47.62V47.08H129.781V48.568H131.197V49.468H129.781V53.128C129.781 53.344 129.813 53.536 129.877 53.704C129.941 53.864 130.049 53.992 130.201 54.088C130.361 54.184 130.573 54.232 130.837 54.232C130.901 54.232 130.977 54.228 131.065 54.22C131.153 54.212 131.229 54.204 131.293 54.196V55C131.197 55.024 131.089 55.04 130.969 55.048C130.849 55.064 130.753 55.072 130.681 55.072Z" fill="#D00A62"/>
<path d="M12.276 32.432C10.116 32.432 8.24401 31.964 6.66001 31.028C5.07601 30.092 3.81601 28.796 2.95201 27.104C2.08801 25.412 1.65601 23.432 1.65601 21.164V17.6C1.65601 15.368 2.08801 13.388 2.95201 11.696C3.81601 10.04 5.07601 8.70801 6.66001 7.77201C8.24401 6.83601 10.116 6.36801 12.276 6.36801C14.4 6.36801 16.272 6.83601 17.856 7.77201C19.44 8.70801 20.7 10.04 21.564 11.696C22.428 13.388 22.896 15.368 22.896 17.6V21.164C22.896 23.432 22.428 25.412 21.564 27.104C20.7 28.796 19.44 30.092 17.856 31.028C16.272 31.964 14.4 32.432 12.276 32.432ZM12.276 29.48C13.716 29.48 14.976 29.192 16.092 28.58C17.208 27.968 18.108 27.032 18.756 25.772C19.404 24.512 19.728 22.928 19.728 21.02V17.744C19.728 15.872 19.404 14.288 18.756 13.028C18.108 11.804 17.208 10.868 16.092 10.256C14.976 9.64401 13.716 9.32001 12.276 9.32001C10.836 9.32001 9.57601 9.64401 8.46001 10.256C7.30801 10.868 6.44401 11.804 5.79601 13.028C5.14801 14.288 4.82401 15.872 4.82401 17.744V21.02C4.82401 22.928 5.14801 24.512 5.79601 25.772C6.44401 27.032 7.30801 27.968 8.46001 28.58C9.57601 29.192 10.836 29.48 12.276 29.48ZM39.7711 32C36.8911 32 34.6951 31.208 33.2551 29.624C31.7791 28.04 31.0591 25.7 31.0591 22.64V6.80001H34.2271V23.108C34.2271 25.196 34.7311 26.708 35.8111 27.644C36.8551 28.58 38.2231 29.048 39.9511 29.048H41.4631C43.1911 29.048 44.5591 28.58 45.6031 27.644C46.6471 26.708 47.1871 25.196 47.1871 23.108V6.80001H50.3551V22.64C50.3551 25.7 49.5991 28.04 48.1591 29.624C46.6831 31.208 44.5231 32 41.6431 32H39.7711ZM86.8364 32V6.80001H102.424V9.75201H90.0044V18.248H101.488V21.2H90.0044V32H86.8364ZM118.473 32V22.748L108.861 6.80001H112.497L120.057 19.868L127.617 6.80001H131.253L121.641 22.748V32H118.473ZM145.632 32V9.75201H137.136V6.80001H157.296V9.75201H148.8V32H145.632Z" fill="black"/>
<path d="M66.8752 32V9.752H58.1632V6.8H66.8752C66.9112 4.928 67.5592 3.488 68.7832 2.444C70.0072 1.436 71.6632 0.895996 73.7872 0.895996C75.6952 0.895996 77.1352 1.364 78.1072 2.228C79.0432 3.092 79.5472 4.136 79.5472 5.36C79.5472 6.656 79.0432 7.736 78.1072 8.528C77.1352 9.356 75.6952 9.752 73.7872 9.752H70.0432V32H66.8752ZM73.7512 3.776C72.8152 3.776 71.9872 4.028 71.1952 4.532C70.4032 5.036 70.0432 5.792 70.0432 6.8H73.7512C75.5512 6.8 76.4512 6.332 76.4512 5.36C76.4512 4.856 76.1992 4.496 75.7312 4.208C75.2272 3.92 74.5792 3.776 73.7512 3.776Z" fill="#D00A62"/>
<path d="M159 32C160.105 32 161 31.1046 161 30C161 28.8954 160.105 28 159 28C157.895 28 157 28.8954 157 30C157 31.1046 157.895 32 159 32Z" fill="#D00A62"/>
</svg>
