<svg width="375" height="57" viewBox="0 0 375 57" fill="none" xmlns="http://www.w3.org/2000/svg">
<g clip-path="url(#clip0_1_1137)">
<path d="M140.301 39.681C138.816 39.681 137.529 39.3592 136.44 38.7157C135.351 38.0722 134.485 37.1812 133.891 36.018C133.297 34.8547 133 33.4935 133 31.9342V29.484C133 27.9495 133.297 26.5882 133.891 25.425C134.485 24.2865 135.351 23.3708 136.44 22.7273C137.529 22.0838 138.816 21.762 140.301 21.762C141.762 21.762 143.049 22.0838 144.138 22.7273C145.227 23.3708 146.093 24.2865 146.687 25.425C147.281 26.5882 147.602 27.9495 147.602 29.484V31.9342C147.602 33.4935 147.281 34.8547 146.687 36.018C146.093 37.1812 145.227 38.0722 144.138 38.7157C143.049 39.3592 141.762 39.681 140.301 39.681ZM140.301 37.6515C141.291 37.6515 142.158 37.4535 142.925 37.0327C143.692 36.612 144.311 35.9685 144.756 35.1022C145.202 34.236 145.425 33.147 145.425 31.8352V29.583C145.425 28.296 145.202 27.207 144.756 26.3407C144.311 25.4992 143.692 24.8558 142.925 24.435C142.158 24.0143 141.291 23.7915 140.301 23.7915C139.311 23.7915 138.445 24.0143 137.678 24.435C136.886 24.8558 136.292 25.4992 135.846 26.3407C135.401 27.207 135.178 28.296 135.178 29.583V31.8352C135.178 33.147 135.401 34.236 135.846 35.1022C136.292 35.9685 136.886 36.612 137.678 37.0327C138.445 37.4535 139.311 37.6515 140.301 37.6515ZM159.204 39.384C157.224 39.384 155.714 38.8395 154.724 37.7505C153.71 36.6615 153.215 35.0527 153.215 32.949V22.059H155.393V33.2707C155.393 34.7062 155.739 35.7457 156.482 36.3892C157.199 37.0327 158.14 37.3545 159.328 37.3545H160.367C161.555 37.3545 162.496 37.0327 163.214 36.3892C163.931 35.7457 164.303 34.7062 164.303 33.2707V22.059H166.481V32.949C166.481 35.0527 165.961 36.6615 164.971 37.7505C163.956 38.8395 162.471 39.384 160.491 39.384H159.204ZM191.562 39.384V22.059H202.278V24.0885H193.74V29.9295H201.634V31.959H193.74V39.384H191.562ZM213.312 39.384V33.0232L206.703 22.059H209.203L214.401 31.0432L219.598 22.059H222.098L215.49 33.0232V39.384H213.312ZM231.983 39.384V24.0885H226.142V22.059H240.003V24.0885H234.161V39.384H231.983Z" fill="black"/>
<path d="M177.838 39.384V24.0885H171.849V22.059H177.838C177.863 20.772 178.308 19.782 179.15 19.0642C179.991 18.3713 181.13 18 182.59 18C183.902 18 184.892 18.3218 185.56 18.9158C186.204 19.5098 186.55 20.2275 186.55 21.069C186.55 21.96 186.204 22.7025 185.56 23.247C184.892 23.8162 183.902 24.0885 182.59 24.0885H180.016V39.384H177.838ZM182.565 19.98C181.922 19.98 181.353 20.1532 180.808 20.4997C180.264 20.8463 180.016 21.366 180.016 22.059H182.565C183.803 22.059 184.422 21.7373 184.422 21.069C184.422 20.7225 184.248 20.475 183.927 20.277C183.58 20.079 183.135 19.98 182.565 19.98Z" fill="#D00A62"/>
<path d="M241.174 39.384C241.934 39.384 242.549 38.7684 242.549 38.009C242.549 37.2496 241.934 36.634 241.174 36.634C240.414 36.634 239.799 37.2496 239.799 38.009C239.799 38.7684 240.414 39.384 241.174 39.384Z" fill="#D00A62"/>
</g>
<defs>
<clipPath id="clip0_1_1137">
<rect width="110" height="22" fill="white" transform="translate(133 18)"/>
</clipPath>
</defs>
</svg>
