<svg width="40" height="40" viewBox="0 0 40 40" fill="none" xmlns="http://www.w3.org/2000/svg">
<path d="M18.9381 19.0774L11.411 26.6045C10.863 27.1525 10.863 28.041 11.411 28.589C11.959 29.137 12.8475 29.137 13.3955 28.589L20.9226 21.0619M18.9381 19.0774L20.9226 21.0619M18.9381 19.0774L19.6823 18.3332M20.9226 21.0619L21.6668 20.3177M19.6823 18.3332L19.7248 18.2906C20.1124 17.9031 20.7406 17.9031 21.1281 18.2906L21.7094 18.8719C22.0969 19.2594 22.0969 19.8876 21.7094 20.2751L21.6668 20.3177M19.6823 18.3332L21.6668 20.3177" stroke="#656565" stroke-width="1.5" stroke-linejoin="round"/>
<path d="M26.2377 11.1671C26.3416 10.9443 26.6584 10.9443 26.7623 11.1671L27.1541 12.0065C27.3266 12.3762 27.6238 12.6734 27.9935 12.8459L28.8329 13.2377C29.0557 13.3416 29.0557 13.6584 28.8329 13.7623L27.9935 14.1541C27.6238 14.3266 27.3266 14.6238 27.1541 14.9935L26.7623 15.8329C26.6584 16.0557 26.3416 16.0557 26.2377 15.8329L25.8459 14.9935C25.6734 14.6238 25.3762 14.3266 25.0065 14.1541L24.1671 13.7623C23.9443 13.6584 23.9443 13.3416 24.1671 13.2377L25.0065 12.8459C25.3762 12.6734 25.6734 12.3762 25.8459 12.0065L26.2377 11.1671Z" stroke="#656565" stroke-width="1.5" stroke-linejoin="round"/>
<path d="M26.2377 22.1671C26.3416 21.9443 26.6584 21.9443 26.7623 22.1671L27.1541 23.0065C27.3266 23.3762 27.6238 23.6734 27.9935 23.8459L28.8329 24.2377C29.0557 24.3416 29.0557 24.6584 28.8329 24.7623L27.9935 25.1541C27.6238 25.3266 27.3266 25.6238 27.1541 25.9935L26.7623 26.8329C26.6584 27.0557 26.3416 27.0557 26.2377 26.8329L25.8459 25.9935C25.6734 25.6238 25.3762 25.3266 25.0065 25.1541L24.1671 24.7623C23.9443 24.6584 23.9443 24.3416 24.1671 24.2377L25.0065 23.8459C25.3762 23.6734 25.6734 23.3762 25.8459 23.0065L26.2377 22.1671Z" stroke="#656565" stroke-width="1.5" stroke-linejoin="round"/>
<path d="M15.2377 11.1671C15.3416 10.9443 15.6584 10.9443 15.7623 11.1671L16.1541 12.0065C16.3266 12.3762 16.6238 12.6734 16.9935 12.8459L17.8329 13.2377C18.0557 13.3416 18.0557 13.6584 17.8329 13.7623L16.9935 14.1541C16.6238 14.3266 16.3266 14.6238 16.1541 14.9935L15.7623 15.8329C15.6584 16.0557 15.3416 16.0557 15.2377 15.8329L14.8459 14.9935C14.6734 14.6238 14.3762 14.3266 14.0065 14.1541L13.1671 13.7623C12.9443 13.6584 12.9443 13.3416 13.1671 13.2377L14.0065 12.8459C14.3762 12.6734 14.6734 12.3762 14.8459 12.0065L15.2377 11.1671Z" stroke="#656565" stroke-width="1.5" stroke-linejoin="round"/>
</svg>
