<svg width="41" height="40" viewBox="0 0 41 40" fill="none" xmlns="http://www.w3.org/2000/svg">
<path d="M14.0001 17V24.6841C14.0001 26.4952 14.0001 27.4008 14.5859 27.9635C15.9 29.2257 23.8559 29.4604 25.4143 27.9635C26.0001 27.4008 26.0001 26.4952 26.0001 24.6841V17" stroke="#656565" stroke-width="1.5" stroke-linecap="round"/>
<path d="M13.7409 20L11.0433 17.3892C10.3479 16.716 10.0001 16.3795 10.0001 15.9612C10.0001 15.543 10.3479 15.2064 11.0433 14.5333L13.0443 12.5966C13.391 12.2611 13.5644 12.0933 13.771 11.9697C13.9777 11.8461 14.2102 11.771 14.6754 11.621L16.3212 11.09C16.5619 11.0123 16.6822 10.9735 16.764 11.0202C16.8459 11.0669 16.8717 11.2013 16.9234 11.4702C17.1937 12.8768 18.4684 13.9419 20.0001 13.9419C21.5318 13.9419 22.8065 12.8768 23.0769 11.4702C23.1285 11.2013 23.1544 11.0669 23.2362 11.0202C23.318 10.9735 23.4383 11.0123 23.679 11.09L25.3248 11.621C25.79 11.771 26.0226 11.8461 26.2292 11.9697C26.4359 12.0933 26.6092 12.2611 26.9559 12.5966L28.9569 14.5333C29.6524 15.2064 30.0001 15.543 30.0001 15.9612C30.0001 16.3795 29.6524 16.716 28.9569 17.3892L26.2594 20" stroke="#656565" stroke-width="1.5" stroke-linecap="round" stroke-linejoin="round"/>
</svg>
